<?xml version="1.0" encoding="iso-8859-1"?>
<!-- Uploaded to: SVG Repo, www.svgrepo.com, Generator: SVG Repo Mixer Tools -->
<svg height="800px" width="800px" version="1.1" id="Layer_1" xmlns="http://www.w3.org/2000/svg" xmlns:xlink="http://www.w3.org/1999/xlink" 
	 viewBox="0 0 512 512" xml:space="preserve">
<g transform="translate(1 1)">
	<path style="fill:#FFE100;" d="M468.333,306.2c0-135.68-110.933-196.267-110.933-196.267V75.8H255H152.6v34.133
		c0,0-110.933,60.587-110.933,196.267c0,0-0.853,135.68,59.733,196.267H255h153.6C469.187,441.88,468.333,306.2,468.333,306.2"/>
	<path style="fill:#FFA800;" d="M255,195.267c-49.493,0-91.307,32.427-105.813,76.8H44.227c-1.707,11.093-2.56,22.187-2.56,34.133
		c0,0,0,13.653,1.707,34.133h105.813c14.507,44.373,56.32,76.8,105.813,76.8s91.307-32.427,105.813-76.8h105.813
		c1.707-20.48,1.707-34.133,1.707-34.133c0-11.947-0.853-23.04-2.56-34.133h-104.96C346.307,227.693,304.493,195.267,255,195.267"/>
	<path style="fill:#FFE100;" d="M365.08,75.8H144.92c-5.12,0-9.387-4.267-9.387-9.387V16.92c0-5.12,4.267-9.387,9.387-9.387h220.16
		c5.12,0,9.387,4.267,9.387,9.387v49.493C374.467,71.533,370.2,75.8,365.08,75.8"/>
	<path style="fill:#FFA800;" d="M365.933,7.533h-25.6c5.12,0,9.387,4.267,9.387,9.387v49.493c0,5.12-4.267,9.387-9.387,9.387h25.6
		c5.12,0,9.387-4.267,9.387-9.387V16.92C375.32,11.8,371.053,7.533,365.933,7.533"/>
	<path style="fill:#FFFFFF;" d="M144.92,7.533h25.6c-5.12,0-9.387,4.267-9.387,9.387v49.493c0,5.12,4.267,9.387,9.387,9.387h-25.6
		c-5.12,0-9.387-4.267-9.387-9.387V16.92C135.533,11.8,139.8,7.533,144.92,7.533"/>
	<path style="fill:#FFA800;" d="M468.333,306.2c0-135.68-110.933-196.267-110.933-196.267V75.8h-25.6v34.133
		c0,0,110.933,60.587,110.933,196.267c0,0,0.853,135.68-59.733,196.267h25.6C469.187,441.88,468.333,306.2,468.333,306.2"/>
	<path style="fill:#FFFFFF;" d="M41.667,306.2c0-135.68,110.933-196.267,110.933-196.267V75.8h25.6v34.133
		c0,0-110.933,60.587-110.933,196.267c0,0-0.853,135.68,59.733,196.267h-25.6C40.813,441.88,41.667,306.2,41.667,306.2"/>
	<g>
		<polygon style="fill:#FFE100;" points="220.867,323.267 186.733,306.2 186.733,263.533 220.867,246.467 255,263.533 255,306.2 		
			"/>
		<polygon style="fill:#FFE100;" points="289.133,323.267 255,306.2 255,263.533 289.133,246.467 323.267,263.533 323.267,306.2 		
			"/>
		<polygon style="fill:#FFE100;" points="255,383 220.867,365.933 220.867,323.267 255,306.2 289.133,323.267 289.133,365.933 		"/>
	</g>
	<path d="M412.013,511H97.987l-2.56-2.56C33.133,446.147,33.133,312.173,33.133,306.2c0-124.587,89.6-187.733,110.933-201.387
		V67.267h221.867v37.547c21.333,13.653,110.933,76.8,110.933,201.387c0,5.973,0,139.947-62.293,202.24L412.013,511z
		 M104.813,493.933h300.373C459.8,435.053,459.8,307.907,459.8,306.2c0-128.853-105.813-188.587-106.667-188.587l-4.267-2.56v-30.72
		H161.133v30.72l-4.267,2.56c-0.853,0-106.667,59.733-106.667,188.587C50.2,307.907,50.2,435.053,104.813,493.933z"/>
	<path d="M365.08,84.333H144.92c-10.24,0-17.92-7.68-17.92-17.92V16.92C127,6.68,134.68-1,144.92-1h220.16
		C375.32-1,383,6.68,383,16.92v49.493C383,76.653,375.32,84.333,365.08,84.333z M144.92,16.067
		C144.067,16.067,144.067,16.067,144.92,16.067l-0.853,50.347c0,0.853,0,0.853,0.853,0.853h220.16c0.853,0,0.853,0,0.853-0.853
		V16.92c0-0.853,0-0.853-0.853-0.853H144.92z"/>
	<path d="M255,425.667c-49.493,0-93.867-30.72-111.787-76.8H35.693l-0.853-7.68c-1.707-20.48-1.707-34.133-1.707-34.987
		c0-11.947,0.853-23.893,2.56-34.987l0.853-7.68h106.667c17.92-46.08,61.44-76.8,111.787-76.8s93.867,30.72,111.787,76.8h106.667
		l0.853,7.68c1.707,11.947,2.56,23.893,2.56,34.987c0,0.853,0,14.507-1.707,34.987l-0.853,7.68h-107.52
		C348.867,394.947,304.493,425.667,255,425.667z M51.053,331.8H155.16l1.707,5.973c13.653,42.667,52.907,70.827,97.28,70.827
		s83.627-28.16,97.28-70.827l1.707-5.973H457.24c0.853-15.36,0.853-25.6,0.853-25.6c0-8.533-0.853-17.067-1.707-25.6h-102.4
		l-1.707-5.973C338.627,231.96,299.373,203.8,255,203.8s-83.627,28.16-97.28,70.827l-1.707,5.973H51.907
		c-0.853,8.533-1.707,17.067-1.707,25.6C50.2,306.2,50.2,316.44,51.053,331.8z"/>
	<path d="M220.867,331.8c-1.707,0-2.56,0-3.413-0.853L183.32,313.88c-3.413-1.707-5.12-4.267-5.12-7.68v-42.667
		c0-3.413,1.707-5.973,5.12-7.68l34.133-17.067c2.56-0.853,5.12-0.853,7.68,0l34.133,17.067c2.56,1.707,5.12,4.267,5.12,7.68V306.2
		c0,3.413-1.707,5.973-5.12,7.68l-34.133,17.067C223.427,331.8,222.573,331.8,220.867,331.8z M195.267,301.08l25.6,12.8l25.6-12.8
		v-32.427l-25.6-12.8l-25.6,12.8V301.08z"/>
	<path d="M289.133,331.8c-1.707,0-2.56,0-3.413-0.853l-34.133-17.067c-3.413-1.707-5.12-4.267-5.12-7.68v-42.667
		c0-3.413,1.707-5.973,5.12-7.68l34.133-17.067c2.56-0.853,5.12-0.853,7.68,0l34.133,17.067c2.56,1.707,5.12,4.267,5.12,7.68V306.2
		c0,3.413-1.707,5.973-5.12,7.68L293.4,330.947C291.693,331.8,290.84,331.8,289.133,331.8z M263.533,301.08l25.6,12.8l25.6-12.8
		v-32.427l-25.6-12.8l-25.6,12.8V301.08z"/>
	<path d="M255,391.533c-1.707,0-2.56,0-3.413-0.853l-34.133-17.067c-3.413-1.707-5.12-4.267-5.12-7.68v-42.667
		c0-3.413,1.707-5.973,5.12-7.68l34.133-17.067c2.56-0.853,5.12-0.853,7.68,0l34.133,17.067c2.56,1.707,5.12,4.267,5.12,7.68v42.667
		c0,3.413-1.707,5.973-5.12,7.68l-34.133,17.067C257.56,391.533,256.707,391.533,255,391.533z M229.4,360.813l25.6,12.8l25.6-12.8
		v-32.427l-25.6-12.8l-25.6,12.8V360.813z"/>
</g>
</svg>