<?xml version="1.0" encoding="iso-8859-1"?>
<!-- Uploaded to: SVG Repo, www.svgrepo.com, Generator: SVG Repo Mixer Tools -->
<svg version="1.1" id="Layer_1" xmlns="http://www.w3.org/2000/svg" xmlns:xlink="http://www.w3.org/1999/xlink" 
	 viewBox="0 0 512 512" xml:space="preserve">
<path style="fill:#F2962E;" d="M281.816,96.285h-171.86C49.182,127.512,7.604,190.828,7.604,263.856
	c0,69.533,37.697,130.256,93.764,162.864h189.038c56.067-32.609,93.764-93.332,93.764-162.864
	C384.169,190.828,342.591,127.512,281.816,96.285z"/>
<g>
	<path style="fill:#FFC88F;" d="M285.96,402.679l-8.293-12.748c19.528-12.702,36.082-30.015,47.872-50.066
		c11.801-20.072,18.824-43.05,20.308-66.452l15.179,0.963c-1.635,25.769-9.373,51.08-22.377,73.196
		C325.67,369.643,307.451,388.699,285.96,402.679z"/>
	<path style="fill:#FFC88F;" d="M345.838,254.103c-1.46-22.846-7.879-44.473-19.077-64.283l13.24-7.484
		c12.162,21.517,19.43,45.998,21.014,70.799L345.838,254.103z"/>
</g>
<g>
	<path style="fill:#F2962E;" d="M493.485,68.933c0,7.771-6.3,14.071-14.071,14.071h-57.244c-7.771,0-14.072-6.3-14.072-14.071l0,0
		c0-7.771,6.3-14.071,14.072-14.071h57.244C487.185,54.862,493.485,61.162,493.485,68.933L493.485,68.933z"/>
	<path style="fill:#F2962E;" d="M504.396,97.076c0,7.771-6.3,14.071-14.071,14.071h-79.068c-7.771,0-14.071-6.3-14.071-14.071l0,0
		c0-7.771,6.3-14.071,14.071-14.071h79.068C498.097,83.005,504.396,89.305,504.396,97.076L504.396,97.076z"/>
	<path style="fill:#F2962E;" d="M504.396,125.218c0,7.771-6.3,14.071-14.071,14.071h-79.068c-7.771,0-14.071-6.3-14.071-14.071l0,0
		c0-7.771,6.3-14.071,14.071-14.071h79.068C498.097,111.148,504.396,117.447,504.396,125.218L504.396,125.218z"/>
	<path style="fill:#F2962E;" d="M493.485,153.361c0,7.771-6.3,14.072-14.071,14.072h-57.244c-7.771,0-14.072-6.3-14.072-14.072l0,0
		c0-7.771,6.3-14.071,14.072-14.071h57.244C487.185,139.29,493.485,145.59,493.485,153.361L493.485,153.361z"/>
</g>
<rect x="436.785" y="167.43" style="fill:#B84B41;" width="28.006" height="289.703"/>
<rect x="109.782" y="54.86" style="fill:#DFDBB2;" width="172.206" height="41.423"/>
<polygon style="fill:#51AA5B;" points="144.438,228.842 195.887,196.181 247.334,228.842 247.334,294.164 195.887,326.824 
	144.438,294.164 "/>
<g>
	<path style="fill:#7A1B2E;" d="M289.592,91.824V47.258H102.181v44.566c-29.662,16.187-54.718,39.791-72.644,68.549
		C10.214,191.369,0,227.154,0,263.856c0,34.916,9.304,69.196,26.905,99.133c17.082,29.05,41.507,53.361,70.639,70.305l1.772,1.031
		h193.139l1.772-1.031c29.132-16.944,53.559-41.254,70.639-70.305c17.602-29.938,26.906-64.216,26.906-99.133
		c0-36.702-10.214-72.487-29.537-103.484C344.309,131.615,319.253,108.011,289.592,91.824z M274.383,88.681h-13.493V62.466h13.493
		V88.681z M146.089,88.681V62.466h13.493V88.68h-13.493V88.681z M174.789,62.466h13.493V88.68h-13.493V62.466z M203.49,62.466
		h13.494V88.68H203.49V62.466z M232.191,62.466h13.493V88.68h-13.493V62.466z M117.389,62.466h13.493V88.68h-13.493
		C117.389,88.68,117.389,62.466,117.389,62.466z M351.757,355.281c-15.416,26.219-37.318,48.255-63.426,63.835H103.44
		c-26.106-15.581-48.01-37.617-63.426-63.835c-16.228-27.603-24.806-59.216-24.806-91.425c0-67.453,36.968-128.577,96.608-159.967
		h168.142c59.64,31.39,96.608,92.516,96.608,159.967C376.565,296.064,367.987,327.678,351.757,355.281z"/>
	<path style="fill:#7A1B2E;" d="M512,97.076c0-8.723-5.191-16.239-12.636-19.674c1.109-2.603,1.725-5.465,1.725-8.468
		c0-11.953-9.724-21.676-21.676-21.676h-57.244c-11.952,0-21.676,9.723-21.676,21.676c0,3.003,0.615,5.865,1.725,8.468
		c-7.446,3.435-12.637,10.952-12.637,19.675c0,5.37,1.975,10.281,5.221,14.071c-3.246,3.791-5.221,8.701-5.221,14.071
		c0,8.723,5.191,16.24,12.637,19.675c-1.109,2.603-1.725,5.464-1.725,8.467c0,11.953,9.724,21.676,21.676,21.676h7.015v289.704
		h43.214V175.037h7.015c11.951,0,21.676-9.723,21.676-21.676c0-3.003-0.615-5.864-1.725-8.468
		c7.445-3.435,12.636-10.952,12.636-19.675c0-5.37-1.975-10.281-5.221-14.071C510.026,107.357,512,102.447,512,97.076z
		 M496.792,125.218c0,3.567-2.901,6.467-6.467,6.467h-10.911h-57.244h-10.912c-3.567,0-6.467-2.901-6.467-6.467
		c0-3.567,2.901-6.467,6.467-6.467h79.067C493.891,118.751,496.792,121.653,496.792,125.218z M411.258,103.543
		c-3.567,0-6.467-2.902-6.467-6.467c0-3.566,2.901-6.466,6.467-6.466h10.912h57.244h10.911c3.567,0,6.467,2.901,6.467,6.466
		c0,3.566-2.901,6.467-6.467,6.467H411.258z M422.17,62.466h57.244c3.567,0,6.467,2.901,6.467,6.467
		c0,3.567-2.901,6.467-6.467,6.467H422.17c-3.567,0-6.467-2.901-6.467-6.467C415.703,65.367,418.603,62.466,422.17,62.466z
		 M457.191,449.533h-12.798V175.037h12.798V449.533z M479.413,159.829h-7.015h-43.214h-7.015c-3.567,0-6.467-2.901-6.467-6.467
		c0-3.566,2.901-6.466,6.467-6.466h57.244c3.567,0,6.467,2.901,6.467,6.466C485.881,156.927,482.98,159.829,479.413,159.829z"/>
	<rect x="80.603" y="449.529" style="fill:#7A1B2E;" width="230.574" height="15.208"/>
	<path style="fill:#7A1B2E;" d="M136.834,224.662v73.681l59.053,37.488l59.052-37.488v-73.681l-59.052-37.488L136.834,224.662z
		 M239.73,289.983l-43.844,27.834l-43.845-27.834v-56.962l43.845-27.834l43.844,27.834V289.983z"/>
</g>
<polygon style="fill:#95E49C;" points="224.522,277.445 209.314,277.445 209.314,249.74 191.812,238.629 199.962,225.789 
	224.522,241.38 "/>
</svg>