<?xml version="1.0" encoding="iso-8859-1"?>
<!-- Uploaded to: SVG Repo, www.svgrepo.com, Generator: SVG Repo Mixer Tools -->
<svg height="800px" width="800px" version="1.1" id="Layer_1" xmlns="http://www.w3.org/2000/svg" xmlns:xlink="http://www.w3.org/1999/xlink" 
	 viewBox="0 0 512 512" xml:space="preserve">
<g transform="translate(1 1)">
	<path style="fill:#FFE100;" d="M404.109,434.649l-8.982,8.982c-77.249,77.249-202.105,77.249-279.354,0l-8.982-8.982
		c-77.249-76.351-77.249-202.105-0.898-279.354L255,7.982l149.109,147.312C481.358,232.544,481.358,358.298,404.109,434.649"/>
	<path style="fill:#FFA800;" d="M404.109,155.295L255,7.982l122.161,147.312c77.249,77.249,77.249,202.105,0,279.354l-8.982,8.982
		c-35.032,35.032-79.944,53.895-126.653,57.488c54.793,3.593,111.382-15.27,153.6-57.488l8.982-8.982
		C480.46,358.298,480.46,232.544,404.109,155.295"/>
	<path style="fill:#FFFFFF;" d="M105.891,155.295L255,7.982L132.839,155.295c-76.351,77.249-76.351,203.004,0,279.354l8.982,8.982
		c35.032,35.032,79.944,53.895,126.653,57.488c-54.793,3.593-111.382-15.27-153.6-57.488l-8.982-8.982
		C29.54,358.298,29.54,232.544,105.891,155.295"/>
	<polygon style="fill:#FDCC00;" points="219.07,268.474 183.14,250.509 183.14,205.596 219.07,187.632 255,205.596 255,250.509 	"/>
	<polygon style="fill:#FFA800;" points="290.93,268.474 255,250.509 255,205.596 290.93,187.632 326.86,205.596 326.86,250.509 	"/>
	<polygon style="fill:#FDCC00;" points="183.14,331.351 147.211,313.386 147.211,268.474 183.14,250.509 219.07,268.474 
		219.07,313.386 	"/>
	<g>
		<polygon style="fill:#FFA800;" points="255,331.351 219.07,313.386 219.07,268.474 255,250.509 290.93,268.474 290.93,313.386 		
			"/>
		<polygon style="fill:#FFA800;" points="219.07,394.228 183.14,376.263 183.14,331.351 219.07,313.386 255,331.351 255,376.263 		
			"/>
	</g>
	<g>
		<polygon style="fill:#FF8800;" points="290.93,394.228 255,376.263 255,331.351 290.93,313.386 326.86,331.351 326.86,376.263 		
			"/>
		<polygon style="fill:#FF8800;" points="326.86,331.351 290.93,313.386 290.93,268.474 326.86,250.509 362.789,268.474 
			362.789,313.386 		"/>
	</g>
	<path d="M255,511c-54.793,0-106.891-21.558-146.414-60.182l-8.982-8.982c-80.842-80.842-80.842-211.986,0-291.93L248.712,1.695
		c3.593-3.593,8.982-3.593,12.575,0l149.109,147.312c80.842,80.842,80.842,211.986,0,291.93l-8.982,8.982
		C361.891,489.442,310.691,511,255,511z M255,20.558L112.179,162.481c-72.758,72.758-72.758,193.123,0,265.881l8.982,8.982
		c35.93,35.93,82.639,55.691,133.839,55.691s97.909-19.761,133.839-55.691l8.982-8.982c73.656-73.656,73.656-193.123,0-266.779
		L255,20.558z"/>
	<path d="M219.07,277.456c-1.796,0-2.695,0-3.593-0.898l-35.93-17.965c-3.593-1.796-5.389-4.491-5.389-8.084v-44.912
		c0-3.593,1.796-6.288,5.389-8.084l35.93-17.965c2.695-0.898,5.389-0.898,8.084,0l35.93,17.965c2.695,1.796,5.389,4.491,5.389,8.084
		v44.912c0,3.593-1.797,6.288-5.389,8.084l-35.93,17.965C221.765,277.456,220.867,277.456,219.07,277.456z M192.123,245.119
		l26.947,13.474l26.947-13.474v-34.133l-26.947-13.474l-26.947,13.474V245.119z"/>
	<path d="M290.93,277.456c-1.797,0-2.695,0-3.593-0.898l-35.93-17.965c-3.593-1.796-5.389-4.491-5.389-8.084v-44.912
		c0-3.593,1.796-6.288,5.389-8.084l35.93-17.965c2.695-0.898,5.389-0.898,8.084,0l35.93,17.965c2.695,1.796,5.389,4.491,5.389,8.084
		v44.912c0,3.593-1.796,6.288-5.389,8.084l-35.93,17.965C293.625,277.456,292.726,277.456,290.93,277.456z M263.982,245.119
		l26.947,13.474l26.947-13.474v-34.133l-26.947-13.474l-26.947,13.474V245.119z"/>
	<path d="M183.14,340.333c-1.796,0-2.695,0-3.593-0.898l-35.93-17.965c-3.593-1.796-5.389-4.491-5.389-8.084v-44.912
		c0-3.593,1.796-6.288,5.389-8.084l35.93-17.965c2.695-0.898,5.389-0.898,8.084,0l35.93,17.965c2.695,1.797,5.389,4.491,5.389,8.084
		v44.912c0,3.593-1.796,6.288-5.389,8.084l-35.93,17.965C185.835,340.333,184.937,340.333,183.14,340.333z M156.193,307.997
		l26.947,13.474l26.947-13.474v-34.133l-26.947-13.474l-26.947,13.474V307.997z"/>
	<path d="M255,340.333c-1.796,0-2.695,0-3.593-0.898l-35.93-17.965c-3.593-1.796-5.389-4.491-5.389-8.084v-44.912
		c0-3.593,1.796-6.288,5.389-8.084l35.93-17.965c2.695-0.898,5.389-0.898,8.084,0l35.93,17.965c2.695,1.797,5.389,4.491,5.389,8.084
		v44.912c0,3.593-1.797,6.288-5.389,8.084l-35.93,17.965C257.695,340.333,256.797,340.333,255,340.333z M228.053,307.997L255,321.47
		l26.947-13.474v-34.133L255,260.389l-26.947,13.474V307.997z"/>
	<path d="M219.07,403.211c-1.796,0-2.695,0-3.593-0.898l-35.93-17.965c-3.593-1.797-5.389-4.491-5.389-8.084v-44.912
		c0-3.593,1.796-6.288,5.389-8.084l35.93-17.965c2.695-0.898,5.389-0.898,8.084,0l35.93,17.965c2.695,1.796,5.389,4.491,5.389,8.084
		v44.912c0,3.593-1.797,6.288-5.389,8.084l-35.93,17.965C221.765,403.211,220.867,403.211,219.07,403.211z M192.123,370.874
		l26.947,13.474l26.947-13.474V336.74l-26.947-13.474l-26.947,13.474V370.874z"/>
	<path d="M290.93,403.211c-1.797,0-2.695,0-3.593-0.898l-35.93-17.965c-3.593-1.797-5.389-4.491-5.389-8.084v-44.912
		c0-3.593,1.796-6.288,5.389-8.084l35.93-17.965c2.695-0.898,5.389-0.898,8.084,0l35.93,17.965c2.695,1.796,5.389,4.491,5.389,8.084
		v44.912c0,3.593-1.796,6.288-5.389,8.084l-35.93,17.965C293.625,403.211,292.726,403.211,290.93,403.211z M263.982,370.874
		l26.947,13.474l26.947-13.474V336.74l-26.947-13.474l-26.947,13.474V370.874z"/>
	<path d="M326.86,340.333c-1.797,0-2.695,0-3.593-0.898l-35.93-17.965c-3.593-1.796-5.389-4.491-5.389-8.084v-44.912
		c0-3.593,1.797-6.288,5.389-8.084l35.93-17.965c2.695-0.898,5.389-0.898,8.084,0l35.93,17.965c2.695,1.797,5.389,4.491,5.389,8.084
		v44.912c0,3.593-1.797,6.288-5.389,8.084l-35.93,17.965C329.554,340.333,328.656,340.333,326.86,340.333z M299.912,307.997
		l26.947,13.474l26.947-13.474v-34.133l-26.947-13.474l-26.947,13.474V307.997z"/>
</g>
</svg>